<?xml version="1.0" standalone="no"?><!DOCTYPE svg PUBLIC "-//W3C//DTD SVG 1.1//EN" "http://www.w3.org/Graphics/SVG/1.1/DTD/svg11.dtd"><svg t="1736585341362" class="icon" viewBox="0 0 1024 1024" version="1.1" xmlns="http://www.w3.org/2000/svg" p-id="1126" xmlns:xlink="http://www.w3.org/1999/xlink" width="200" height="200"><path d="M346.29 92.69h-190c-55.14 0-100 44.86-100 100v148.24h390V192.69c0-55.14-44.86-100-100-100zM943.42 221.98L802 80.55c-38.99-38.99-102.43-38.99-141.42 0L519.16 221.98c-18.89 18.89-29.29 44-29.29 70.71 0 17.15 4.29 33.64 12.36 48.24h458.12c8.07-14.61 12.36-31.09 12.36-48.24 0-26.71-10.4-51.83-29.29-70.71z" fill="#FFF4FD" p-id="1127"></path><path d="M156.29 482.69h190c55.14 0 100-44.86 100-100v-41.76h-390v41.76c0 55.14 44.86 100 100 100zM351.29 572.69h-200c-55.14 0-100 44.86-100 100v10.33h400v-10.33c0-55.14-44.86-100-100-100zM502.23 340.93c4.5 8.14 10.17 15.71 16.93 22.47l141.42 141.42c18.89 18.89 44 29.29 70.71 29.29s51.82-10.4 70.71-29.29L943.42 363.4c6.76-6.76 12.43-14.32 16.93-22.47H502.23zM831.29 572.69h-200c-55.14 0-100 44.86-100 100v10.33h400v-10.33c0-55.14-44.86-100-100-100z" fill="#FFE0F8" p-id="1128"></path><path d="M51.29 872.69c0 55.14 44.86 100 100 100h200c55.14 0 100-44.86 100-100V683.02h-400v189.67zM531.29 683.02v189.67c0 55.14 44.86 100 100 100h200c55.14 0 100-44.86 100-100V683.02h-400z" fill="#FFC2F1" p-id="1129"></path><path d="M156.29 482.69h190c55.14 0 100-44.86 100-100v-190c0-55.14-44.86-100-100-100h-190c-55.14 0-100 44.86-100 100v190c0 55.14 44.86 100 100 100z m-60-290c0-33.08 26.92-60 60-60h190c33.08 0 60 26.92 60 60v190c0 33.08-26.92 60-60 60h-190c-33.08 0-60-26.92-60-60v-190zM351.29 572.69h-200c-55.14 0-100 44.86-100 100v200c0 55.14 44.86 100 100 100h200c55.14 0 100-44.86 100-100v-200c0-55.14-44.86-100-100-100z m60 300c0 33.08-26.92 60-60 60h-200c-33.08 0-60-26.92-60-60v-200c0-33.08 26.92-60 60-60h200c33.08 0 60 26.92 60 60v200zM943.42 221.98L802 80.55c-38.99-38.99-102.43-38.99-141.42 0L519.16 221.98c-18.89 18.89-29.29 44-29.29 70.71s10.4 51.82 29.29 70.71l141.42 141.42c18.89 18.89 44 29.29 70.71 29.29s51.82-10.4 70.71-29.29L943.42 363.4c18.89-18.89 29.29-44 29.29-70.71 0-26.71-10.4-51.83-29.29-70.71z m-28.28 113.13L773.72 476.53c-11.33 11.33-26.4 17.57-42.43 17.57s-31.09-6.24-42.43-17.57L547.44 335.11c-11.33-11.33-17.57-26.4-17.57-42.43s6.24-31.09 17.57-42.43l141.42-141.42c11.7-11.7 27.06-17.55 42.43-17.55s30.73 5.85 42.43 17.55l141.42 141.42c11.33 11.33 17.57 26.4 17.57 42.43s-6.24 31.1-17.57 42.43zM831.29 572.69h-200c-55.14 0-100 44.86-100 100v200c0 55.14 44.86 100 100 100h200c55.14 0 100-44.86 100-100v-200c0-55.14-44.86-100-100-100z m60 300c0 33.08-26.92 60-60 60h-200c-33.08 0-60-26.92-60-60v-200c0-33.08 26.92-60 60-60h200c33.08 0 60 26.92 60 60v200z" fill="#333333" p-id="1130"></path></svg>