<?xml version="1.0" standalone="no"?><!DOCTYPE svg PUBLIC "-//W3C//DTD SVG 1.1//EN" "http://www.w3.org/Graphics/SVG/1.1/DTD/svg11.dtd"><svg t="1736585696138" class="icon" viewBox="0 0 1024 1024" version="1.1" xmlns="http://www.w3.org/2000/svg" p-id="1635" xmlns:xlink="http://www.w3.org/1999/xlink" width="200" height="200"><path d="M971.95 152.88c0-55.14-44.86-99.99-100-99.99H152c-26.62 0-51.71 10.43-70.64 29.36C62.42 101.18 52 126.27 52 152.9l0.01 188.95h919.95l-0.01-188.97z" fill="#FFF4FD" p-id="1636"></path><path d="M52.02 341.84h919.95v342.09H52.02z" fill="#FFE0F8" p-id="1637"></path><path d="M52.05 872.9c0 55.14 44.86 99.99 100 99.99H872c26.62 0 51.71-10.43 70.64-29.36C961.58 924.6 972 899.51 972 872.88l-0.01-188.95H52.04l0.01 188.97z" fill="#FFC2F1" p-id="1638"></path><path d="M971.95 152.88c0-55.14-44.86-99.99-100-99.99H152c-26.62 0-51.71 10.43-70.64 29.36C62.42 101.18 52 126.27 52 152.9l0.05 720c0 55.14 44.86 99.99 100 99.99H872c26.62 0 51.71-10.43 70.64-29.36C961.58 924.6 972 899.51 972 872.88l-0.05-720zM767 92.89v160c0 33.08-26.92 60-60 60H317c-33.08 0-60-26.92-60-60v-160h510z m147.36 822.36c-11.38 11.38-26.42 17.64-42.36 17.64H152.05c-33.08 0-60-26.91-60-60l-0.05-720c0-15.94 6.26-30.98 17.64-42.36 11.38-11.38 26.42-17.64 42.36-17.64h65v160c0 55.14 44.86 100 100 100h390c55.14 0 100-44.86 100-100v-160h64.95c33.08 0 60 26.91 60 60l0.05 720c0 15.94-6.26 30.98-17.64 42.36z" fill="#333333" p-id="1639"></path><path d="M640.28 252.89c11.05 0 20-8.95 20-20v-60c0-11.05-8.95-20-20-20s-20 8.95-20 20v60c0 11.05 8.96 20 20 20z" fill="#333333" p-id="1640"></path></svg>