<?xml version="1.0" standalone="no"?><!DOCTYPE svg PUBLIC "-//W3C//DTD SVG 1.1//EN" "http://www.w3.org/Graphics/SVG/1.1/DTD/svg11.dtd"><svg t="1736585739299" class="icon" viewBox="0 0 1024 1024" version="1.1" xmlns="http://www.w3.org/2000/svg" p-id="1807" xmlns:xlink="http://www.w3.org/1999/xlink" width="200" height="200"><path d="M944.92 336.85c-23.46-58.14-57.92-110.17-102.4-154.66-44.49-44.48-96.52-78.94-154.66-102.41-56.09-22.64-115.4-34.12-176.27-34.12S391.41 57.14 335.32 79.78c-58.13 23.47-110.17 57.92-154.65 102.41-44.49 44.49-78.94 96.52-102.41 154.65-0.67 1.66-1.33 3.33-1.98 5h870.63c-0.66-1.66-1.32-3.33-1.99-4.99z" fill="#FFFBF2" p-id="1808"></path><path d="M76.09 683.94h870.99c21.21-54.47 31.96-111.91 31.96-170.82 0-59.07-10.81-116.66-32.14-171.27H76.27c-21.33 54.61-32.14 112.2-32.14 171.27 0 58.9 10.75 116.34 31.96 170.82z" fill="#FEF5DB" p-id="1809"></path><path d="M78.25 689.39c23.47 58.13 57.92 110.17 102.41 154.65 44.49 44.49 96.52 78.94 154.65 102.41 56.09 22.64 115.4 34.12 176.27 34.12s120.18-11.48 176.27-34.12c58.13-23.47 110.17-57.92 154.65-102.41 44.49-44.49 78.94-96.52 102.41-154.65 0.73-1.82 1.45-3.63 2.16-5.46H76.09c0.71 1.83 1.43 3.65 2.16 5.46z" fill="#FCE9B5" p-id="1810"></path><path d="M511.59 980.58c-60.88 0-120.18-11.48-176.27-34.12-58.13-23.47-110.17-57.92-154.65-102.41-44.49-44.49-78.94-96.52-102.41-154.65C55.62 633.31 44.14 574 44.14 513.13s11.48-120.18 34.12-176.27c23.47-58.13 57.92-110.17 102.41-154.65 44.49-44.49 96.52-78.94 154.65-102.41 56.09-22.64 115.4-34.12 176.27-34.12S631.77 57.16 687.86 79.8c58.13 23.47 110.17 57.92 154.65 102.41 44.49 44.49 78.94 96.52 102.41 154.65 22.64 56.09 34.12 115.4 34.12 176.27s-11.48 120.18-34.12 176.27c-23.46 58.13-57.92 110.16-102.4 154.64-44.49 44.49-96.52 78.94-154.65 102.41-56.1 22.65-115.4 34.13-176.28 34.13z m0-894.92c-114.67 0-222.15 44.33-302.64 124.82-80.49 80.49-124.82 187.97-124.82 302.64s44.33 222.15 124.82 302.64c80.49 80.49 187.97 124.82 302.64 124.82s222.15-44.33 302.64-124.82c80.49-80.49 124.82-187.97 124.82-302.64s-44.33-222.15-124.82-302.64C733.74 129.99 626.26 85.66 511.59 85.66z" fill="#333333" p-id="1811"></path><path d="M980.45 513.02c0-56.6-10.07-111.78-29.94-164.3-1.53-4.13-3.12-8.24-4.77-12.33-23.47-58.13-57.92-110.17-102.41-154.65-40.06-40.06-86.24-71.98-137.48-95.07-3.96-1.81-7.94-3.58-11.95-5.28-57.7-24.51-118.86-36.94-181.77-36.94-56.62 0-111.82 10.07-164.36 29.96-4.11 1.53-8.2 3.1-12.27 4.75-58.13 23.47-110.17 57.92-154.65 102.41-40.05 40.05-71.97 86.23-95.06 137.46-1.82 3.97-3.58 7.96-5.29 11.98-24.51 57.7-36.94 118.86-36.94 181.77S55.99 636.85 80.5 694.55c6.67 15.7 14.15 30.96 22.42 45.74 2.9 5.19 5.89 10.33 8.98 15.4 19.34 32.06 42.54 61.69 69.41 88.56 34.51 34.51 73.56 62.97 116.47 84.96a469.631 469.631 0 0 0 32.33 15.21c57.7 24.51 118.86 36.94 181.77 36.94 56.62 0 111.82-10.07 164.36-29.96 4.11-1.53 8.2-3.1 12.27-4.75 58.13-23.47 110.17-57.92 154.65-102.41 40.05-40.05 71.97-86.23 95.06-137.46 1.82-3.96 3.58-7.95 5.29-11.98 24.51-57.71 36.94-118.87 36.94-181.78zM938.98 535c-0.08 1.51-0.17 3.02-0.26 4.52-0.04 0.66-0.08 1.31-0.13 1.97-0.06 0.95-0.13 1.89-0.2 2.84-0.08 1.07-0.16 2.15-0.25 3.22l-0.12 1.51c-0.12 1.43-0.25 2.85-0.38 4.28-0.01 0.12-0.02 0.25-0.04 0.37a429.62 429.62 0 0 1-10.15 60.3c-0.04 0.15-0.07 0.3-0.11 0.45 0 0.01 0 0.02-0.01 0.03-17.23 70.41-51.93 134.05-99.23 186.04l-54.22-54.22c-7.81-7.81-20.47-7.81-28.29 0s-7.81 20.47 0 28.28l54.24 54.24a430.435 430.435 0 0 1-70.91 52.51c-0.04 0.02-0.08 0.05-0.12 0.07-0.87 0.52-1.75 1.02-2.63 1.53-58.6 33.87-124.77 53.33-194.05 56.52v-76.34c0-11.05-8.95-20-20-20s-20 8.95-20 20v76.37c-40.81-1.81-80.55-9.27-118.3-21.99-55.91-19.14-106.64-49.55-149.47-88.51l54.22-54.22c7.81-7.81 7.81-20.47 0-28.28-7.81-7.81-20.47-7.81-28.29 0l-54.24 54.24a429.923 429.923 0 0 1-54.92-75.04c-27.87-48.6-45.43-101.55-52.69-155.63-1.6-12.23-2.68-24.59-3.23-37.04h76.55c11.05 0 20-8.95 20-20s-8.95-20-20-20H85.24c2.03-44.25 10.7-87.24 25.52-127.8 19.25-52.16 48.39-99.58 85.14-139.97l54.22 54.22c3.91 3.91 9.02 5.86 14.14 5.86s10.24-1.95 14.14-5.86c7.81-7.81 7.81-20.47 0-28.28l-54.24-54.24a430.787 430.787 0 0 1 73.73-54.16c58.58-33.85 124.73-53.29 193.98-56.48v76.34c0 11.05 8.95 20 20 20s20-8.95 20-20V86.29c40.79 1.81 80.52 9.26 118.26 21.97 55.93 19.14 106.68 49.56 149.51 88.53l-54.22 54.22c-7.81 7.81-7.81 20.47 0 28.28 3.91 3.91 9.02 5.86 14.14 5.86s10.24-1.95 14.14-5.86l54.24-54.24c22.12 24.23 41.5 51 57.64 79.81 31.31 56.11 50.36 119.96 53.5 187.9h-76.85c-11.05 0-20 8.95-20 20s8.95 20 20 20h76.85c-0.03 0.63-0.05 1.26-0.08 1.89-0.01 0.12-0.02 0.24-0.02 0.35z" fill="#333333" p-id="1812"></path><path d="M599.5 480.12c-0.15-0.59-0.34-1.19-0.59-1.79l-70.15-172.41c-6.73-16.53-30.13-16.53-36.86 0l-67 164.67c-6.23 12.63-9.73 26.84-9.73 41.85 0 52.38 42.62 95 95 95s95-42.62 95-95c-0.01-11.35-2.01-22.23-5.67-32.32z m-89.34 87.32c-30.33 0-55-24.67-55-55s24.67-55 55-55 55 24.67 55 55-24.67 55-55 55z" fill="#333333" p-id="1813"></path></svg>