<?xml version="1.0" standalone="no"?><!DOCTYPE svg PUBLIC "-//W3C//DTD SVG 1.1//EN" "http://www.w3.org/Graphics/SVG/1.1/DTD/svg11.dtd"><svg t="1736585419340" class="icon" viewBox="0 0 1024 1024" version="1.1" xmlns="http://www.w3.org/2000/svg" p-id="1297" xmlns:xlink="http://www.w3.org/1999/xlink" width="200" height="200"><path d="M926.3 142.52c-1.81-27.11-13.71-52.26-33.51-70.82-19.81-18.57-45.67-28.8-72.8-28.8H204.03c-27.13 0-52.99 10.23-72.8 28.8-19.8 18.56-31.7 43.71-33.51 70.82L84.35 342.95h855.32L926.3 142.52z" fill="#F2FFF5" p-id="1298"></path><path d="M962.49 685.05l-22.82-342.1H84.35l-22.83 342.1z" fill="#D8FFE2" p-id="1299"></path><path d="M49.24 869.02c-1.96 29.41 8.45 58.61 28.57 80.12 20.06 21.45 48.4 33.75 77.74 33.75h712.89c29.34 0 57.68-12.3 77.74-33.75 20.12-21.51 30.53-50.71 28.57-80.12l-12.27-183.98H61.52L49.24 869.02z" fill="#ADFCC2" p-id="1300"></path><path d="M974.76 869.02l-48.46-726.5c-1.81-27.11-13.71-52.26-33.51-70.82-19.81-18.57-45.67-28.8-72.8-28.8H204.03c-27.13 0-52.99 10.23-72.8 28.8-19.8 18.56-31.7 43.71-33.51 70.82l-48.48 726.5c-1.96 29.41 8.45 58.61 28.57 80.12 20.06 21.45 48.4 33.75 77.74 33.75h712.89c29.34 0 57.68-12.3 77.74-33.75 20.13-21.51 30.54-50.71 28.58-80.12z m-57.78 52.79c-12.71 13.59-29.95 21.08-48.53 21.08h-712.9c-18.58 0-35.82-7.49-48.53-21.08-12.77-13.65-19.12-31.45-17.87-50.13l48.48-726.51c2.33-34.93 31.5-62.29 66.4-62.29h615.96c34.9 0 64.07 27.36 66.4 62.29l48.46 726.51c1.24 18.68-5.1 36.48-17.87 50.13z" fill="#333333" p-id="1301"></path><path d="M742.23 233.6c-9.99-4.72-21.91-0.44-26.62 9.55C669.62 340.57 593.5 398.74 512 398.74c-81.51 0-157.62-58.17-203.61-155.59-4.71-9.99-16.63-14.27-26.62-9.55-9.99 4.71-14.26 16.63-9.55 26.62C324.98 372 414.62 438.74 512 438.74S699.02 372 751.78 260.22c4.72-9.99 0.44-21.91-9.55-26.62z" fill="#333333" p-id="1302"></path></svg>