<?xml version="1.0" standalone="no"?><!DOCTYPE svg PUBLIC "-//W3C//DTD SVG 1.1//EN" "http://www.w3.org/Graphics/SVG/1.1/DTD/svg11.dtd"><svg t="1736585639410" class="icon" viewBox="0 0 1024 1024" version="1.1" xmlns="http://www.w3.org/2000/svg" p-id="1463" xmlns:xlink="http://www.w3.org/1999/xlink" width="200" height="200"><path d="M942 152c0-55.14-44.86-100-100-100H182C126.86 52 82 96.86 82 152v199h860V152z" fill="#FFFBF2" p-id="1464"></path><path d="M82 351h860v342.09H82z" fill="#FEF5DB" p-id="1465"></path><path d="M82 872c0 55.14 44.86 100 100 100h660c55.14 0 100-44.86 100-100V693.09H82V872z" fill="#FCE9B5" p-id="1466"></path><path d="M842 52H182C126.86 52 82 96.86 82 152v720c0 55.14 44.86 100 100 100h660c55.14 0 100-44.86 100-100V152c0-55.14-44.86-100-100-100zM182 92h660c33.08 0 60 26.92 60 60v100H122V152c0-33.08 26.92-60 60-60z m660 840H182c-33.08 0-60-26.92-60-60V292h780v580c0 33.08-26.92 60-60 60z" fill="#333333" p-id="1467"></path><path d="M646.35 612l70.71-70.71c15.6-15.6 15.6-40.97 0-56.57l-77.78-77.78c-15.6-15.6-40.97-15.6-56.57 0L512 477.65l-70.71-70.71c-15.6-15.6-40.97-15.6-56.57 0l-77.78 77.78c-15.59 15.6-15.59 40.97 0 56.57l35.38 35.38 41 41-42.5 140.56a20.012 20.012 0 0 0 5 19.93c3.81 3.81 8.92 5.86 14.14 5.86 1.93 0 3.88-0.28 5.79-0.86l140.57-42.5 76.39 76.39c7.8 7.8 18.04 11.7 28.28 11.7s20.49-3.9 28.28-11.7l77.78-77.78c15.6-15.6 15.6-40.97 0-56.57l-70.7-70.7zM611 435.22L688.78 513l-70.71 70.71-77.78-77.78L611 435.22zM434.22 612l77.79-77.79 77.79 77.78-77.8 77.79L434.22 612z m-28.29-28.28l-21.19-21.19 77.78-77.79 21.19 21.19-77.78 77.79z m7.08-148.5l21.24 21.24-77.78 77.78L335.22 513l77.79-77.78z m-23.09 298.86l25.49-84.32 58.83 58.83-84.32 25.49z m298.86-23.09L611 788.78l-70.71-70.71 77.8-77.8 70.71 70.7-0.02 0.02z" fill="#333333" p-id="1468"></path></svg>