<?xml version="1.0" standalone="no"?><!DOCTYPE svg PUBLIC "-//W3C//DTD SVG 1.1//EN" "http://www.w3.org/Graphics/SVG/1.1/DTD/svg11.dtd"><svg t="1741925537169" class="icon" viewBox="0 0 1024 1024" version="1.1" xmlns="http://www.w3.org/2000/svg" p-id="2179" xmlns:xlink="http://www.w3.org/1999/xlink" width="200" height="200"><path d="M883.2 704l-217.6-89.6c6.4-25.6 12.8-51.2 12.8-76.8 0-32-6.4-57.6-19.2-83.2L768 377.6c6.4-6.4 6.4-12.8 6.4-19.2s-12.8-6.4-19.2-6.4l-108.8 76.8c-32-51.2-83.2-89.6-140.8-102.4l12.8-217.6c0-6.4-6.4-19.2-12.8-19.2s-19.2 6.4-19.2 12.8l-12.8 224h-12.8c-83.2 0-153.6 51.2-192 115.2L121.6 384c-6.4-6.4-19.2 0-19.2 6.4-6.4 6.4 0 19.2 6.4 19.2l153.6 57.6c-6.4 25.6-12.8 44.8-12.8 70.4 0 57.6 19.2 108.8 57.6 147.2l-121.6 121.6c-6.4 6.4-6.4 19.2 0 25.6 6.4 0 19.2 0 25.6-6.4L332.8 704c38.4 32 83.2 44.8 134.4 44.8 83.2 0 147.2-44.8 185.6-108.8l224 89.6c6.4 6.4 19.2 0 19.2-6.4s0-19.2-12.8-19.2z" fill="#5B8FD9" p-id="2180"></path><path d="M940.8 742.4m-83.2 0a83.2 83.2 0 1 0 166.4 0 83.2 83.2 0 1 0-166.4 0Z" fill="#68D279" p-id="2181"></path><path d="M153.6 876.8m-102.4 0a102.4 102.4 0 1 0 204.8 0 102.4 102.4 0 1 0-204.8 0Z" fill="#FE6D68" p-id="2182"></path><path d="M505.6 96m-57.6 0a57.6 57.6 0 1 0 115.2 0 57.6 57.6 0 1 0-115.2 0Z" fill="#5B8FD9" p-id="2183"></path><path d="M96 384m-76.8 0a76.8 76.8 0 1 0 153.6 0 76.8 76.8 0 1 0-153.6 0Z" fill="#68D279" p-id="2184"></path><path d="M774.4 352m-76.8 0a76.8 76.8 0 1 0 153.6 0 76.8 76.8 0 1 0-153.6 0Z" fill="#F9D65D" p-id="2185"></path></svg>