<?xml version="1.0" standalone="no"?><!DOCTYPE svg PUBLIC "-//W3C//DTD SVG 1.1//EN" "http://www.w3.org/Graphics/SVG/1.1/DTD/svg11.dtd"><svg t="1741925516351" class="icon" viewBox="0 0 1024 1024" version="1.1" xmlns="http://www.w3.org/2000/svg" p-id="1858" xmlns:xlink="http://www.w3.org/1999/xlink" width="200" height="200"><path d="M902.4 102.4H121.6c-44.8 0-83.2 38.4-83.2 83.2v678.4c0 44.8 38.4 83.2 83.2 83.2h780.8c44.8 0 83.2-38.4 83.2-83.2V185.6c0-44.8-38.4-83.2-83.2-83.2z m-230.4 256s-89.6 6.4-128 153.6c0 6.4 0 6.4-6.4 12.8 0 6.4 0 6.4 6.4 12.8 32 147.2 128 153.6 128 153.6h44.8v-38.4l115.2 64-115.2 64v-44.8h-44.8s-108.8 6.4-153.6-134.4c-57.6 134.4-140.8 134.4-140.8 134.4h-64v38.4l-115.2-64 115.2-64v44.8h57.6s83.2-12.8 128-172.8c-44.8-153.6-128-172.8-128-172.8h-57.6v44.8l-115.2-64 115.2-64v38.4h64s83.2 6.4 140.8 134.4c51.2-140.8 153.6-134.4 153.6-134.4h44.8V256L832 320l-115.2 64v-25.6h-44.8z" fill="#68D279" p-id="1859"></path></svg>