<?xml version="1.0" standalone="no"?><!DOCTYPE svg PUBLIC "-//W3C//DTD SVG 1.1//EN" "http://www.w3.org/Graphics/SVG/1.1/DTD/svg11.dtd"><svg t="1741788264955" class="icon" viewBox="0 0 1024 1024" version="1.1" xmlns="http://www.w3.org/2000/svg" p-id="5901" xmlns:xlink="http://www.w3.org/1999/xlink" width="200" height="200"><path d="M294.4 336c-28 0-51.2 23.2-51.2 51.2V464c0 28 23.2 51.2 51.2 51.2s51.2-23.2 51.2-51.2v-76.8c0-28.8-23.2-51.2-51.2-51.2zM499.2 336c-28 0-51.2 23.2-51.2 51.2V464c0 28 23.2 51.2 51.2 51.2s51.2-23.2 51.2-51.2v-76.8c0-28.8-23.2-51.2-51.2-51.2z" fill="#88A3E9" p-id="5902"></path><path d="M947.2 512c0 245.6-204 444-452 435.2-225.6-8.8-409.6-192-417.6-417.6C68 280.8 266.4 76.8 512 76.8c75.2 0 149.6 19.2 215.2 56.8 11.2 6.4 24 6.4 36 1.6 40.8-20 85.6-32.8 133.6-38.4-16.8 34.4-33.6 68-49.6 102.4-3.2 7.2 4.8 11.2 11.2 11.2h44.8c14.4 0 28-8.8 34.4-21.6l57.6-117.6c12.8-25.6-5.6-55.2-34.4-55.2-76.8 0-147.2 13.6-212 41.6C675.2 19.2 594.4 0 512 0 221.6 0-12.8 242.4 0.8 536c12 262.4 224.8 475.2 487.2 487.2 293.6 13.6 536-220.8 536-511.2 0-69.6-14.4-138.4-41.6-201.6-6.4-14.4-20-23.2-35.2-23.2-27.2 0-46.4 28-35.2 52.8 23.2 54.4 35.2 112.8 35.2 172z" fill="#88A3E9" p-id="5903"></path></svg>