<?xml version="1.0" standalone="no"?><!DOCTYPE svg PUBLIC "-//W3C//DTD SVG 1.1//EN" "http://www.w3.org/Graphics/SVG/1.1/DTD/svg11.dtd"><svg t="1741925498609" class="icon" viewBox="0 0 1024 1024" version="1.1" xmlns="http://www.w3.org/2000/svg" p-id="1702" xmlns:xlink="http://www.w3.org/1999/xlink" width="200" height="200"><path d="M912 841.6h-800c-3.2 0-9.6-3.2-9.6-9.6V227.2c0-3.2 3.2-9.6 9.6-9.6h800c3.2 0 9.6 3.2 9.6 9.6V832c0 6.4-3.2 9.6-9.6 9.6z" fill="#68D279" p-id="1703"></path><path d="M848 777.6h-672c-12.8 0-22.4-9.6-22.4-22.4V294.4c0-12.8 9.6-22.4 22.4-22.4h668.8c12.8 0 22.4 9.6 22.4 22.4v464c0 9.6-9.6 19.2-19.2 19.2z" fill="#3A3E42" p-id="1704"></path><path d="M224 358.4l70.4 73.6L224 502.4l22.4 22.4 70.4-70.4 25.6-22.4-25.6-25.6-70.4-70.4zM494.592 531.584h-134.4v-35.2h134.4z" fill="#FFFFFF" p-id="1705"></path></svg>