<?xml version="1.0" standalone="no"?><!DOCTYPE svg PUBLIC "-//W3C//DTD SVG 1.1//EN" "http://www.w3.org/Graphics/SVG/1.1/DTD/svg11.dtd"><svg t="1741926024137" class="icon" viewBox="0 0 1024 1024" version="1.1" xmlns="http://www.w3.org/2000/svg" p-id="2814" xmlns:xlink="http://www.w3.org/1999/xlink" width="200" height="200"><path d="M832 140.8h-89.6c-25.6 0-44.8 19.2-44.8 44.8v89.6c0 25.6 19.2 44.8 44.8 44.8H832c25.6 0 44.8-19.2 44.8-44.8V192c6.4-25.6-19.2-51.2-44.8-51.2m-275.2 0H467.2c-25.6 0-44.8 25.6-44.8 51.2v89.6c0 25.6 19.2 44.8 44.8 44.8h89.6c25.6 0 44.8-19.2 44.8-44.8V192c0-25.6-19.2-51.2-44.8-51.2m-275.2 0H192c-25.6 0-51.2 25.6-51.2 51.2v89.6c0 25.6 19.2 44.8 44.8 44.8h89.6c25.6 0 44.8-19.2 44.8-44.8V192c6.4-25.6-12.8-51.2-38.4-51.2M832 422.4h-89.6c-25.6 0-44.8 19.2-44.8 44.8v89.6c0 25.6 19.2 44.8 44.8 44.8H832c25.6 0 44.8-19.2 44.8-44.8V467.2c6.4-25.6-19.2-44.8-44.8-44.8m-275.2 0H467.2c-25.6 0-44.8 19.2-44.8 44.8v89.6c0 25.6 19.2 44.8 44.8 44.8h89.6c25.6 0 44.8-19.2 44.8-44.8V467.2c0-25.6-19.2-44.8-44.8-44.8m-275.2 0H192c-25.6 0-44.8 19.2-44.8 44.8v89.6c0 25.6 19.2 44.8 44.8 44.8h89.6c25.6 0 44.8-19.2 44.8-44.8V467.2c0-25.6-19.2-44.8-44.8-44.8m550.4 275.2h-89.6c-25.6 0-44.8 19.2-44.8 44.8V832c0 25.6 19.2 44.8 44.8 44.8H832c25.6 0 44.8-19.2 44.8-44.8v-89.6c6.4-25.6-19.2-44.8-44.8-44.8m-275.2 0H467.2c-25.6 0-44.8 19.2-44.8 44.8V832c0 25.6 19.2 44.8 44.8 44.8h89.6c25.6 0 44.8-19.2 44.8-44.8v-89.6c0-25.6-19.2-44.8-44.8-44.8m-275.2 0H192c-25.6 0-44.8 19.2-44.8 44.8V832c0 25.6 19.2 44.8 44.8 44.8h89.6c25.6 0 44.8-19.2 44.8-44.8v-89.6c0-25.6-19.2-44.8-44.8-44.8" fill="#68D279" p-id="2815"></path></svg>